<svg xmlns="http://www.w3.org/2000/svg" width="24" height="24" viewBox="0 0 24 24">
    <g fill="none" fill-rule="evenodd">
        <g>
            <g>
                <g transform="translate(-316 -50) translate(0 39) translate(316 11)">
                    <path d="M0 0H24V24H0z"/>
                    <path fill="#FFF" fill-rule="nonzero" d="M5.886 9.569c.217-.308.623-.404.95-.24l.095.057 3.12 2.192 2.907-1.927c.22-.146.496-.164.73-.056l.098.055 4.127 2.724c.346.228.441.693.213 1.04-.207.313-.61.42-.942.266l-.097-.054-3.714-2.452-2.918 1.938c-.225.15-.51.164-.747.047l-.099-.058-3.54-2.487c-.339-.238-.42-.706-.183-1.045z"/>
                    <circle cx="9" cy="8" r="1" fill="#FFF"/>
                    <path fill="#FFF" fill-rule="nonzero" d="M19 3.25H5c-.966 0-1.75.784-1.75 1.75v14c0 .966.784 1.75 1.75 1.75h7c.365 0 .676-.262.739-.621l.585-3.362c.018-.098.092-.177.189-.2l6.66-1.583c.338-.08.577-.383.577-.73V5c0-.966-.784-1.75-1.75-1.75zm.057 1.507c.11.026.193.125.193.243v8.661l-6.084 1.447-.143.04c-.61.2-1.065.722-1.176 1.362l-.478 2.74H5c-.138 0-.25-.112-.25-.25V5c0-.138.112-.25.25-.25h14l.057.007z"/>
                    <path fill="#FFF" stroke="#FFF" stroke-linejoin="round" stroke-width="1.5" d="M20 14.254l-6.66 1.583c-.39.093-.686.408-.754.801L12 20h0l8-5.746z"/>
                </g>
            </g>
        </g>
    </g>
</svg>
